<?xml version="1.0" standalone="no"?>
<!DOCTYPE svg PUBLIC "-//W3C//DTD SVG 20010904//EN"
 "http://www.w3.org/TR/2001/REC-SVG-20010904/DTD/svg10.dtd">
<svg version="1.0" xmlns="http://www.w3.org/2000/svg"
 width="717.000000pt" height="717.000000pt" viewBox="0 0 717.000000 717.000000"
 preserveAspectRatio="xMidYMid meet">
<metadata>
Created by potrace 1.14, written by Peter Selinger 2001-2017
</metadata>
<g transform="translate(0.000000,717.000000) scale(0.100000,-0.100000)"
fill="#000000" stroke="none">
<path d="M3254 7123 c5 -10 -4 -13 -33 -14 -23 -1 -44 -2 -48 -3 -12 -4 -145
-19 -173 -21 -14 0 -30 -4 -35 -7 -8 -5 -38 -12 -135 -33 -33 -7 -86 -19 -90
-20 -3 -1 -25 -7 -50 -14 -79 -22 -174 -52 -215 -68 -22 -8 -47 -16 -56 -18
-9 -2 -38 -12 -65 -23 -52 -21 -86 -34 -94 -37 -3 0 -24 -11 -47 -23 -23 -12
-49 -22 -58 -22 -8 0 -15 -4 -15 -8 0 -4 -22 -16 -50 -27 -27 -11 -50 -23 -50
-27 0 -4 -5 -8 -10 -8 -14 0 -176 -92 -277 -157 -46 -29 -83 -50 -83 -46 0 4
-6 0 -12 -8 -7 -8 -40 -35 -73 -59 -33 -25 -94 -72 -136 -107 -42 -34 -78 -61
-80 -60 -2 1 -3 0 -2 -1 2 -5 -69 -67 -76 -67 -3 0 -61 -55 -128 -122 -67 -68
-116 -120 -110 -116 7 3 -5 -11 -25 -32 -21 -21 -38 -42 -38 -47 0 -5 -6 -6
-12 -2 -7 4 -10 4 -6 -1 4 -4 -8 -26 -27 -48 -19 -22 -35 -44 -35 -48 0 -4 -9
-11 -20 -14 -11 -4 -18 -10 -16 -13 2 -4 -4 -19 -15 -32 -134 -170 -355 -543
-419 -710 -8 -19 -18 -38 -22 -41 -5 -3 -10 -14 -12 -25 -3 -10 -11 -35 -19
-54 -34 -84 -31 -75 -41 -112 -5 -16 -13 -28 -18 -28 -6 0 -8 -6 -5 -14 3 -8
3 -17 -1 -20 -3 -4 -7 -14 -8 -22 -1 -9 -6 -23 -10 -32 -10 -22 -45 -143 -46
-159 -1 -7 -5 -13 -10 -13 -5 0 -7 -4 -3 -10 7 -12 -5 -61 -14 -55 -4 2 -7 -6
-6 -18 1 -12 -2 -35 -6 -52 -5 -16 -11 -46 -14 -65 -3 -19 -8 -42 -10 -50 -2
-8 -7 -31 -10 -50 -3 -19 -10 -57 -15 -85 -5 -27 -12 -75 -15 -105 -4 -30 -8
-66 -10 -80 -2 -14 -3 -42 -4 -63 -1 -28 -4 -36 -14 -31 -9 6 -9 4 -1 -7 6 -8
9 -27 7 -44 -6 -53 -5 -428 1 -495 3 -36 8 -90 11 -120 3 -30 7 -66 9 -80 2
-14 7 -47 11 -73 4 -27 8 -59 11 -70 2 -12 6 -40 9 -63 3 -22 10 -55 15 -74 5
-18 8 -36 5 -38 -3 -3 -1 -10 4 -16 5 -6 12 -24 14 -41 7 -36 10 -47 36 -145
11 -41 32 -109 46 -150 14 -41 27 -80 29 -87 1 -7 5 -16 9 -19 4 -4 7 -13 7
-21 0 -17 87 -224 139 -331 23 -45 41 -87 41 -92 0 -6 4 -10 9 -10 5 0 11 -8
14 -17 7 -20 74 -142 88 -159 5 -6 7 -14 4 -17 -3 -4 -2 -5 1 -2 4 2 30 -32
57 -78 28 -45 74 -114 103 -154 29 -39 50 -74 46 -78 -4 -4 -1 -5 6 -3 7 2 20
-10 30 -26 9 -16 28 -41 42 -56 75 -81 155 -175 155 -181 0 -4 4 -11 9 -16 5
-4 6 -3 3 3 -4 7 42 -36 101 -95 59 -58 130 -124 157 -146 28 -21 62 -52 78
-67 15 -15 30 -28 33 -28 8 0 128 -93 132 -102 2 -5 10 -8 18 -8 8 0 14 -5 14
-11 0 -5 4 -7 10 -4 5 3 10 3 10 -2 0 -4 20 -21 45 -36 25 -16 45 -33 45 -39
0 -5 4 -7 9 -4 5 3 19 -2 32 -12 13 -11 70 -45 126 -76 57 -32 103 -62 103
-67 0 -4 6 -6 14 -3 7 3 20 -1 27 -9 8 -7 16 -14 19 -14 3 0 27 -10 54 -21 27
-12 53 -22 58 -22 5 0 6 -5 3 -11 -4 -6 -1 -9 6 -8 23 4 69 -12 69 -24 0 -6 3
-8 6 -5 3 4 29 -4 57 -16 61 -27 225 -85 258 -91 12 -3 26 -10 30 -16 4 -6 12
-9 18 -5 6 4 23 0 39 -8 16 -8 32 -13 34 -10 3 2 18 0 33 -6 16 -6 40 -13 54
-15 14 -2 36 -6 49 -9 21 -6 31 -8 92 -21 48 -10 75 -15 110 -20 51 -6 111
-15 140 -20 141 -25 633 -25 810 0 73 10 115 17 122 21 5 3 8 -1 8 -8 0 -10 2
-10 8 -1 4 7 23 14 42 17 19 2 46 7 60 10 14 3 37 8 53 11 65 12 86 17 155 36
40 11 81 22 90 24 9 2 51 15 92 29 41 14 83 26 93 26 9 0 17 5 17 10 0 6 3 9
8 9 4 -1 10 0 15 1 4 1 10 3 15 5 13 3 46 17 87 35 22 10 65 28 95 40 82 33
124 54 132 65 4 6 8 7 8 3 0 -3 41 16 91 43 49 27 92 49 95 49 3 0 10 5 17 10
37 31 90 59 100 54 7 -4 9 -4 5 0 -6 8 145 116 162 116 6 0 10 3 10 8 0 4 17
18 37 32 20 14 43 31 50 38 7 7 13 11 13 8 0 -3 17 10 37 29 20 19 41 31 45
29 5 -3 7 -2 6 3 -2 4 2 10 7 12 6 3 18 15 28 28 10 13 22 23 26 23 5 0 66 57
137 127 71 70 132 126 136 125 5 -1 7 2 5 6 -1 5 24 37 56 73 31 35 57 67 57
71 0 5 7 8 15 8 8 0 14 4 12 9 -2 11 104 151 116 151 4 0 7 7 7 15 0 7 6 18
13 22 6 4 19 21 27 36 8 16 24 40 37 53 12 13 20 24 17 24 -4 0 75 130 86 140
6 6 26 42 82 153 22 42 44 77 50 77 5 0 7 4 4 8 -3 5 9 37 27 73 17 35 31 66
32 69 1 3 8 21 17 41 9 20 19 45 22 57 4 12 12 22 17 22 6 0 7 5 4 10 -4 6 1
24 9 42 9 17 16 35 16 39 0 4 5 20 12 36 6 15 13 37 15 48 2 10 9 23 16 27 6
4 9 8 5 8 -4 0 -3 12 3 28 12 30 19 54 26 95 3 15 10 27 15 27 5 0 7 4 4 9 -3
5 1 27 8 49 8 22 13 42 10 45 -2 2 2 22 10 45 8 22 17 53 20 69 3 15 10 55 16
88 16 84 25 146 36 240 2 22 7 54 10 70 7 43 17 252 17 370 1 139 -10 318 -29
460 -9 66 -18 134 -20 150 -3 29 -49 241 -59 278 -3 9 -7 26 -10 37 -11 46
-14 57 -24 88 -5 18 -10 33 -10 35 0 1 -2 9 -5 17 -3 8 -21 62 -41 120 -19 58
-39 114 -44 125 -31 69 -40 92 -43 110 -1 11 -5 22 -8 25 -11 11 -153 306
-153 317 0 7 -3 11 -5 8 -5 -5 -56 73 -57 85 0 9 -166 253 -211 312 -24 31
-44 61 -44 67 0 6 -4 11 -9 11 -9 0 -136 151 -136 163 0 4 -4 7 -10 8 -16 1
-35 21 -29 30 3 5 -2 9 -10 9 -9 0 -16 4 -16 10 0 10 -54 65 -145 148 -27 25
-43 42 -35 37 9 -5 12 -5 7 1 -5 5 -12 9 -16 9 -6 0 -106 84 -156 133 -8 6
-16 12 -19 12 -9 0 -140 101 -154 118 -7 10 -14 15 -15 13 -3 -8 -87 51 -87
61 0 5 -4 6 -10 3 -5 -3 -10 -1 -10 6 0 7 -3 10 -6 6 -3 -3 -37 14 -74 38 -38
24 -103 62 -145 83 -41 21 -73 41 -69 44 3 3 -1 6 -8 5 -7 -1 -53 18 -103 42
-139 66 -399 167 -455 176 -3 0 -11 4 -17 8 -7 5 -13 6 -13 2 0 -3 -8 -1 -19
4 -10 6 -33 13 -52 16 -19 3 -48 10 -65 16 -17 5 -42 12 -55 15 -139 29 -159
32 -214 39 -22 3 -50 7 -63 10 -12 3 -46 8 -75 11 -28 2 -70 7 -92 11 -64 9
-616 10 -621 1 -3 -5 -13 -3 -22 4 -12 10 -14 10 -8 1z"/>
</g>
</svg>
